<svg xmlns="http://www.w3.org/2000/svg" viewBox="0 0 800 600" width="100%" height="100%">
  <defs>
    <linearGradient id="bgGrad" x1="0%" y1="0%" x2="100%" y2="100%">
      <stop offset="0%" stop-color="#0b0f19" />
      <stop offset="100%" stop-color="#1a1c29" />
    </linearGradient>

    <radialGradient id="brainGlow" cx="50%" cy="50%" r="50%">
      <stop offset="0%" stop-color="#00f2fe" stop-opacity="0.6" />
      <stop offset="70%" stop-color="#4facfe" stop-opacity="0.1" />
      <stop offset="100%" stop-color="#1a1c29" stop-opacity="0" />
    </radialGradient>

    <linearGradient id="holoBeam" x1="0%" y1="100%" x2="0%" y2="0%">
      <stop offset="0%" stop-color="#4facfe" stop-opacity="0.8" />
      <stop offset="100%" stop-color="#00f2fe" stop-opacity="0" />
    </linearGradient>
  </defs>

  <rect width="800" height="600" fill="url(#bgGrad)" />

  <g stroke="#ffffff" stroke-opacity="0.05" stroke-width="1">
    <line x1="0" y1="100" x2="800" y2="100" />
    <line x1="0" y1="200" x2="800" y2="200" />
    <line x1="0" y1="300" x2="800" y2="300" />
    <line x1="0" y1="400" x2="800" y2="400" />
    <line x1="0" y1="500" x2="800" y2="500" />
    <line x1="100" y1="0" x2="100" y2="600" />
    <line x1="200" y1="0" x2="200" y2="600" />
    <line x1="300" y1="0" x2="300" y2="600" />
    <line x1="400" y1="0" x2="400" y2="600" />
    <line x1="500" y1="0" x2="500" y2="600" />
    <line x1="600" y1="0" x2="600" y2="600" />
    <line x1="700" y1="0" x2="700" y2="600" />
  </g>

  <g>
    <rect x="40" y="250" width="100" height="350" rx="5" fill="#161b22" stroke="#4facfe" stroke-width="2" />
    <rect x="50" y="270" width="80" height="20" rx="2" fill="#21262d" />
    <circle cx="65" cy="280" r="4" fill="#39ff14" />
    <circle cx="80" cy="280" r="4" fill="#39ff14" />
    <rect x="50" y="310" width="80" height="20" rx="2" fill="#21262d" />
    <circle cx="65" cy="320" r="4" fill="#ff003c" />
    <circle cx="80" cy="320" r="4" fill="#39ff14" />
    <rect x="160" y="300" width="80" height="300" rx="5" fill="#161b22" stroke="#4facfe" stroke-width="2" />
    <rect x="170" y="320" width="60" height="15" rx="2" fill="#21262d" />
    <circle cx="180" cy="327" r="3" fill="#39ff14" />
    <circle cx="195" cy="327" r="3" fill="#00f2fe" />
  </g>

  <path d="M 140 500 Q 200 550 350 500" fill="none" stroke="#4facfe" stroke-width="4" />
  <path d="M 240 520 Q 300 580 400 520" fill="none" stroke="#ff007f" stroke-width="3" />

  <g transform="translate(350, 250)">
    <path d="M -80 200 L 80 200 L 100 230 L -100 230 Z" fill="#21262d" stroke="#4facfe" stroke-width="2" />
    <polygon points="-60,200 60,200 40,100 -40,100" fill="url(#holoBeam)" />
    
    <circle cx="0" cy="0" r="120" fill="url(#brainGlow)" />
    
    <g stroke="#00f2fe" stroke-width="1.5">
      <line x1="-50" y1="0" x2="-20" y2="-40" />
      <line x1="-20" y1="-40" x2="30" y2="-50" />
      <line x1="30" y1="-50" x2="60" y2="-10" />
      <line x1="60" y1="-10" x2="40" y2="30" />
      <line x1="40" y1="30" x2="-10" y2="50" />
      <line x1="-10" y1="50" x2="-60" y2="30" />
      <line x1="-60" y1="30" x2="-50" y2="0" />
      
      <line x1="-20" y1="-40" x2="10" y2="0" />
      <line x1="10" y1="0" x2="60" y2="-10" />
      <line x1="10" y1="0" x2="-10" y2="50" />
      <line x1="10" y1="0" x2="-60" y2="30" />
    </g>
    <g fill="#ffffff">
      <circle cx="-50" cy="0" r="4" fill="#39ff14"/>
      <circle cx="-20" cy="-40" r="5" fill="#00f2fe"/>
      <circle cx="30" cy="-50" r="4" />
      <circle cx="60" cy="-10" r="6" fill="#ff007f"/>
      <circle cx="40" cy="30" r="4" />
      <circle cx="-10" cy="50" r="5" fill="#00f2fe"/>
      <circle cx="-60" cy="30" r="4" />
      <circle cx="10" cy="0" r="7" fill="#ffffff">
        <animate attributeName="r" values="7;10;7" dur="2s" repeatCount="indefinite" />
      </circle>
    </g>
  </g>

  <polygon points="350,420 500,420 550,470 300,470" fill="#00f2fe" fill-opacity="0.1" stroke="#00f2fe" stroke-width="2" />
  <line x1="330" y1="440" x2="520" y2="440" stroke="#00f2fe" stroke-width="1" stroke-opacity="0.5" />
  <line x1="315" y1="455" x2="535" y2="455" stroke="#00f2fe" stroke-width="1" stroke-opacity="0.5" />

  <g id="camel">
    <path d="M 600 400 Q 750 380 800 500 L 800 600 L 550 600 Z" fill="#C19A6B" />
    <path d="M 700 400 Q 750 300 800 380" fill="#B0895A" />
    
    <path d="M 620 420 Q 550 250 550 180 L 600 160 Q 620 300 660 400 Z" fill="#C19A6B" />
    
    <path d="M 520 180 Q 480 190 480 220 Q 480 240 520 240 L 570 240 Q 600 230 600 190 Z" fill="#C19A6B" />
    
    <circle cx="530" cy="205" r="5" fill="#000" />
    <rect x="515" y="195" width="30" height="15" rx="3" fill="#00f2fe" fill-opacity="0.6" stroke="#ffffff" stroke-width="1" />
    
    <path d="M 580 185 Q 590 160 610 170 Q 600 190 580 185 Z" fill="#C19A6B" />

    <path d="M 550 160 Q 580 140 610 160 L 650 250 Q 620 280 580 260 L 550 160 Z" fill="#ffffff" />
    <path d="M 550 160 Q 530 170 520 190 L 490 280 Q 520 290 540 250 L 550 160 Z" fill="#ffffff" />
    <g stroke="#cc0000" stroke-width="2" opacity="0.6">
      <line x1="560" y1="170" x2="620" y2="230" />
      <line x1="570" y1="165" x2="630" y2="225" />
      <line x1="560" y1="190" x2="600" y2="250" />
      <line x1="530" y1="180" x2="500" y2="240" />
      <line x1="540" y1="175" x2="510" y2="235" />
    </g>
    <ellipse cx="560" cy="165" rx="28" ry="8" fill="none" stroke="#111" stroke-width="6" transform="rotate(-10 560 165)" />
    
    <path d="M 600 480 Q 550 450 500 450 L 495 465 Q 550 470 600 500 Z" fill="#C19A6B" />
    <path d="M 485 450 Q 500 445 505 465 L 480 465 Z" fill="#2d2d2d" /> </g>

  <text x="320" y="100" fill="#00f2fe" font-family="monospace" font-size="14" opacity="0.7">01000001 01000111 01001001</text>
  <text x="650" y="80" fill="#39ff14" font-family="monospace" font-size="12" opacity="0.5">Initialize_Neural_Net()</text>
  <text x="250" y="160" fill="#ff007f" font-family="monospace" font-size="12" opacity="0.5">self.optimize()</text>

</svg>